<svg width="1411" height="330" viewBox="0 0 1411 330" fill="none" xmlns="http://www.w3.org/2000/svg">
<g clip-path="url(#clip0_924_18303)">
<path d="M161.197 77.0604L237.693 49.1791C243.269 47.1774 249.418 49.751 251.991 55.0413L372.526 313.551C376.101 321.129 370.525 329.851 362.089 329.851H272.581C268.149 329.851 264.145 327.134 262.286 323.131L154.763 92.6453C151.903 86.4971 154.906 79.3481 161.197 77.0604Z" fill="#05A54B"/>
<path d="M240.266 313.711L139.034 96.2374C136.46 90.8041 130.312 88.2304 124.735 90.3751L18.2125 129.123C15.0669 130.267 13.4941 133.841 14.9239 136.987C15.9248 138.989 17.9266 140.275 20.0713 140.275H37.8013C42.2337 140.275 46.2373 142.849 48.0961 146.853L61.5365 175.449C62.9663 178.451 62.9663 182.026 61.5365 185.172L1.62645 313.711C-1.94814 321.289 3.62821 330.011 12.0642 330.011H101.143C105.575 330.011 109.579 327.438 111.581 323.434L118.444 308.707C119.445 306.562 122.59 306.562 123.591 308.707L130.455 323.434C132.313 327.438 136.317 330.011 140.892 330.011H229.971C238.407 330.011 243.84 321.289 240.409 313.711H240.266Z" fill="#05A54B"/>
<path d="M485.892 202.035C500.048 191.025 512.487 177.871 522.782 163.144C523.64 161.857 522.21 160.284 520.923 160.999C505.338 169.435 488.323 175.583 470.307 179.158C459.011 181.303 447.43 182.446 435.562 182.446C423.694 182.446 408.252 180.874 395.241 177.871C416.545 175.154 436.706 168.577 454.865 159.14C457.582 157.711 458.725 154.422 457.439 151.562L391.38 9.86836C387.663 1.86143 378.369 -1.99906 369.933 1.00354L274.277 35.7479C267.985 38.0356 264.983 45.1847 267.842 51.3328L300.3 121.108L324.607 173.153L329.611 183.876C337.475 200.748 353.204 212.758 371.505 216.047L398.529 220.765C402.247 221.48 405.393 223.768 406.965 227.199L411.255 236.35L416.974 248.647C420.835 257.082 413.686 266.376 404.678 264.803L374.937 259.513C370.362 258.655 366.787 263.374 368.789 267.52L394.812 323.14C396.671 327.143 400.674 329.717 405.107 329.717H459.869C497.617 329.86 522.496 290.826 506.625 256.653L484.32 208.755C483.176 206.324 483.891 203.465 485.892 201.892V202.035Z" fill="#05A54B"/>
</g>
<path d="M802.184 112C799.741 112 797.787 112 796.322 112.488C796.322 112.488 796.81 112.488 797.299 112.488C798.276 112.488 799.253 112.488 800.23 112.488C801.207 112.488 801.207 112.488 802.184 112.488V112Z" fill="#101010"/>
<path d="M1410.85 280.039C1394.24 309.837 1367.37 329.866 1333.67 329.866C1299.96 329.866 1265.27 301.044 1265.27 259.521L1266.74 117.855H1246.22V109.061C1250.62 107.107 1255.5 104.177 1260.39 101.245C1289.21 84.6363 1322.92 57.7684 1337.57 36.2741H1341.97V101.245H1401.08V111.993H1341.97V255.125C1341.97 279.55 1351.74 295.671 1370.3 295.671C1388.87 295.671 1392.29 287.366 1402.55 273.688L1409.87 279.55L1410.85 280.039Z" fill="#101010"/>
<path d="M1252.62 319.112V329.86H1137.82V319.112H1147.59C1153.94 319.112 1159.32 313.739 1159.32 307.388V179.4C1159.32 145.693 1146.13 132.503 1128.05 132.503C1109.98 132.503 1107.53 138.854 1102.16 152.532V307.388C1102.16 313.739 1107.53 319.112 1113.88 319.112H1123.66V329.86H889.168V319.112C908.709 319.112 910.663 314.228 910.663 289.314V124.199C910.663 124.199 910.663 124.199 910.663 123.71C910.663 123.222 910.663 123.71 910.663 123.222C910.663 123.222 910.663 122.733 910.663 122.245C910.174 116.871 905.289 112.474 899.915 111.986C899.915 111.986 899.915 111.986 899.427 111.986H892.099C887.214 111.986 882.817 115.894 881.352 120.291C881.352 120.291 881.352 120.779 881.352 121.268C881.352 121.268 881.352 121.268 881.352 121.756L837.874 230.204L798.304 329.371H796.35L740.659 185.262L683.015 329.371H680.572L596.548 137.877C586.777 114.917 582.869 111.497 568.702 111.497V100.75H683.992V111.497H682.038H681.061C674.221 112.474 669.825 118.825 670.802 125.176C670.802 126.153 670.802 126.641 671.779 127.618L673.244 131.526V132.992C674.221 133.969 674.71 134.946 675.198 136.411L676.175 138.365L711.837 222.877L734.309 166.21L723.561 137.877C723.073 136.411 722.584 135.434 722.096 133.969L716.234 119.314C714.28 114.917 710.371 111.986 705.486 111.986H696.205V101.239H811.006V111.986C809.052 111.986 807.097 111.986 805.632 111.986C805.143 111.986 804.655 111.986 803.678 111.986C802.701 111.986 801.724 111.986 800.747 111.986C800.747 111.986 800.258 111.986 799.77 111.986C795.373 113.451 792.442 117.848 792.442 122.733C792.442 127.618 792.442 124.199 792.442 125.176C792.442 125.176 792.442 126.153 792.442 126.641C793.419 129.572 794.396 133.48 796.35 138.365L825.661 226.296L865.231 127.13C868.162 119.802 862.788 111.497 854.483 111.497H850.087H843.736C841.782 111.497 839.828 111.497 837.874 111.497H832.012V100.75H989.314V288.337C989.314 311.785 991.756 317.647 1007.88 318.136C1007.88 318.136 1007.88 318.136 1008.37 318.136C1025.95 318.136 1027.91 312.273 1027.91 288.337V122.733C1027.91 116.383 1022.53 111.009 1016.18 111.009H1006.41V100.262H1104.11V138.854C1108.51 128.595 1116.33 118.825 1126.1 111.009C1131.47 106.612 1137.33 103.193 1144.17 100.262C1151.99 96.8423 1160.29 95.3768 1169.09 95.3768C1177.88 95.3768 1188.63 97.3308 1196.93 100.262C1203.28 102.704 1209.15 106.612 1214.52 111.009C1230.15 124.687 1237.97 145.204 1237.97 168.653V287.848C1237.97 294.199 1237.97 299.084 1237.97 302.992V305.923C1237.97 307.388 1237.97 308.854 1238.94 310.319C1239.92 312.762 1241.88 315.205 1244.32 316.182C1245.78 317.159 1247.74 317.647 1249.69 317.647H1255.55L1252.62 319.112Z" fill="#101010"/>
<defs>
<clipPath id="clip0_924_18303">
<rect width="522.604" height="330" fill="white" transform="translate(0.5)"/>
</clipPath>
</defs>
</svg>
